<svg width="21" height="21" viewBox="0 0 21 21" fill="none" xmlns="http://www.w3.org/2000/svg">
<path d="M16.0918 16.7503C15.4001 17.7837 14.6668 18.792 13.5501 18.8087C12.4335 18.8337 12.0751 18.1503 10.8085 18.1503C9.53345 18.1503 9.14178 18.792 8.08345 18.8337C6.99178 18.8753 6.16678 17.7337 5.46678 16.7253C4.04178 14.667 2.95012 10.8753 4.41678 8.32533C5.14178 7.05866 6.44178 6.25866 7.85012 6.23366C8.91678 6.21699 9.93345 6.95866 10.5918 6.95866C11.2418 6.95866 12.4751 6.06699 13.7668 6.20033C14.3085 6.22533 15.8251 6.41699 16.8001 7.85033C16.7251 7.90033 14.9918 8.91699 15.0085 11.0253C15.0335 13.542 17.2168 14.3837 17.2418 14.392C17.2168 14.4503 16.8918 15.592 16.0918 16.7503ZM11.3335 3.41699C11.9418 2.72533 12.9501 2.20033 13.7835 2.16699C13.8918 3.14199 13.5001 4.12533 12.9168 4.82533C12.3418 5.53366 11.3918 6.08366 10.4585 6.00866C10.3335 5.05033 10.8001 4.05033 11.3335 3.41699Z" fill="black"/>
</svg>
