<svg width="96" height="20" viewBox="0 0 96 20" fill="none" xmlns="http://www.w3.org/2000/svg">
<path d="M5.27944 19.6226H0V19.1343C1.64298 18.8457 1.51154 17.8024 1.51154 16.6038V3.01887C1.51154 1.8202 1.64298 0.776915 0 0.488347V0H11.8075L11.9828 3.90677H11.5009C11.2161 1.62042 10.3836 0.732521 8.5435 0.732521H3.7679V9.43396H6.57192C7.97393 9.43396 8.78447 9.34517 9.06925 7.68036H9.55119V11.9645H9.06925C8.78447 10.2997 7.97393 10.2109 6.57192 10.2109H3.7679V16.6038C3.7679 17.8024 3.63646 18.8457 5.27944 19.1343V19.6226Z" fill="#944E63"/>
<path d="M24.1284 7.45838V11.7425H23.6464C23.3616 10.0777 22.5511 9.9889 21.1491 9.9889H18.3451V17.4251C18.3451 18.6238 18.6299 18.8901 19.5718 18.8901H22.2663C24.6322 18.8901 25.3332 17.2697 26.2095 15.3607L26.6476 15.5383L25.7056 19.6226H14.5772V19.1343C16.2201 18.8457 16.0887 17.8024 16.0887 16.6038V3.01887C16.0887 1.8202 16.2201 0.776915 14.5772 0.488347V0H25.7275L25.9028 3.90677H25.4208C25.1361 1.62042 24.3036 0.732521 22.4635 0.732521H18.3451V9.21199H21.1491C22.5511 9.21199 23.3616 9.1232 23.6464 7.45838H24.1284Z" fill="#944E63"/>
<path d="M43.2391 16.6038V2.79689L38.0473 19.6226H37.5654L31.9135 3.04107V16.6038C31.9135 17.8024 32.2202 18.8457 33.8632 19.1343V19.6226H29.1971V19.1343C30.8401 18.8457 31.1468 17.8024 31.1468 16.6038V3.01887C31.1468 1.8202 30.8401 0.776915 29.1971 0.488347V0H33.1622L38.6388 15.5383L43.2391 0H47.007V0.488347C45.364 0.776915 45.4955 1.8202 45.4955 3.01887V16.6038C45.4955 17.8024 45.364 18.8457 47.007 19.1343V19.6226H41.7276V19.1343C43.3706 18.8457 43.2391 17.8024 43.2391 16.6038Z" fill="#944E63"/>
<path d="M53.0549 0.754718C50.9519 0.754718 50.0975 1.59822 49.8566 3.90677H49.3746L49.5499 0H63.0004L63.1757 3.90677H62.6937C62.4527 1.59822 61.5984 0.754718 59.4954 0.754718H57.4362V16.6038C57.4362 17.8024 57.3047 18.8457 58.9477 19.1343V19.6226H53.6683V19.1343C55.3113 18.8457 55.1798 17.8024 55.1798 16.6038V0.754718H53.0549Z" fill="#944E63"/>
<path d="M72.2266 20C67.9768 20 65.1289 15.9822 65.1289 9.9667C65.1289 4.08435 67.8672 0 72.2266 0C76.5641 0 79.3024 4.08435 79.3024 9.9889C79.3024 15.8935 76.5641 20 72.2266 20ZM72.1828 0.754718C69.4007 0.754718 67.6701 4.39512 67.6701 9.92231C67.6701 15.4939 69.4445 19.2453 72.2266 19.2453C75.0087 19.2453 76.7612 15.5383 76.7612 10.0111C76.7612 4.46171 74.9868 0.754718 72.1828 0.754718Z" fill="#944E63"/>
<path d="M87.1717 19.6226H81.8923V19.1343C83.5353 18.8457 83.4038 17.8024 83.4038 16.6038V3.01887C83.4038 1.8202 83.5353 0.776915 81.8923 0.488347V0H88.0699C91.9692 0 94.357 2.04218 94.357 5.39401C94.357 8.34628 92.4074 10.8546 89.3405 11.2098L92.5607 15.8491C94.0941 18.0688 95.0361 18.9567 96 19.1343V19.6226H92.3855L86.7336 11.4761C86.4269 11.5205 86.0764 11.5649 85.6602 11.6759V16.6038C85.6602 17.8024 85.5287 18.8457 87.1717 19.1343V19.6226ZM86.7774 10.7436C89.8881 10.7436 91.8816 8.74584 91.8816 5.59379C91.8816 2.64151 90.1291 0.665927 87.4784 0.665927C86.8431 0.665927 86.2517 0.776915 85.6602 1.02109V10.6548C86.0764 10.7214 86.4488 10.7436 86.7774 10.7436Z" fill="#944E63"/>
</svg>
