<svg width="20" height="21" viewBox="0 0 20 21" fill="none" xmlns="http://www.w3.org/2000/svg">
<path d="M18.1713 8.86824H17.5001V8.83366H10.0001V12.167H14.7097C14.0226 14.1074 12.1763 15.5003 10.0001 15.5003C7.23883 15.5003 5.00008 13.2616 5.00008 10.5003C5.00008 7.73908 7.23883 5.50033 10.0001 5.50033C11.2747 5.50033 12.4342 5.98116 13.3172 6.76658L15.6742 4.40949C14.1859 3.02241 12.1951 2.16699 10.0001 2.16699C5.398 2.16699 1.66675 5.89824 1.66675 10.5003C1.66675 15.1024 5.398 18.8337 10.0001 18.8337C14.6022 18.8337 18.3334 15.1024 18.3334 10.5003C18.3334 9.94158 18.2759 9.39616 18.1713 8.86824Z" fill="#FFC900"/>
<path d="M2.62744 6.62158L5.36536 8.62949C6.10619 6.79533 7.90036 5.50033 9.99994 5.50033C11.2745 5.50033 12.4341 5.98116 13.317 6.76658L15.6741 4.40949C14.1858 3.02241 12.1949 2.16699 9.99994 2.16699C6.79911 2.16699 4.02327 3.97408 2.62744 6.62158Z" fill="#FF3D00"/>
<path d="M10 18.8336C12.1525 18.8336 14.1084 18.0099 15.5871 16.6703L13.008 14.4878C12.1432 15.1454 11.0865 15.5011 10 15.5003C7.83255 15.5003 5.99213 14.1182 5.2988 12.1895L2.5813 14.2832C3.96047 16.982 6.7613 18.8336 10 18.8336Z" fill="#33C759"/>
<path d="M18.1713 8.86759H17.5V8.83301H10V12.1663H14.7096C14.3809 13.0898 13.7889 13.8968 13.0067 14.4876L13.0079 14.4868L15.5871 16.6693C15.4046 16.8351 18.3333 14.6663 18.3333 10.4997C18.3333 9.94092 18.2758 9.39551 18.1713 8.86759Z" fill="#1976D2"/>
</svg>
