<svg width="28" height="28" viewBox="0 0 28 28" fill="none" xmlns="http://www.w3.org/2000/svg">
<mask id="mask0_61_897" style="mask-type:alpha" maskUnits="userSpaceOnUse" x="0" y="0" width="28" height="28">
<rect width="28" height="28" fill="#D9D9D9"/>
</mask>
<g mask="url(#mask0_61_897)">
<path d="M11.0833 18.3343C11.0833 18.7299 11.5209 18.9688 11.8537 18.7549L18.5957 14.4208C18.9019 14.2239 18.9019 13.7764 18.5957 13.5796L11.8537 9.24541C11.5209 9.03149 11.0833 9.27041 11.0833 9.666V18.3343ZM14 25.6668C12.3861 25.6668 10.8694 25.3606 9.44998 24.7481C8.03054 24.1356 6.79581 23.3043 5.74581 22.2543C4.69581 21.2043 3.86456 19.9696 3.25206 18.5502C2.63956 17.1307 2.33331 15.6141 2.33331 14.0002C2.33331 12.3863 2.63956 10.8696 3.25206 9.45016C3.86456 8.03072 4.69581 6.796 5.74581 5.746C6.79581 4.696 8.03054 3.86475 9.44998 3.25225C10.8694 2.63975 12.3861 2.3335 14 2.3335C15.6139 2.3335 17.1305 2.63975 18.55 3.25225C19.9694 3.86475 21.2041 4.696 22.2541 5.746C23.3041 6.796 24.1354 8.03072 24.7479 9.45016C25.3604 10.8696 25.6666 12.3863 25.6666 14.0002C25.6666 15.6141 25.3604 17.1307 24.7479 18.5502C24.1354 19.9696 23.3041 21.2043 22.2541 22.2543C21.2041 23.3043 19.9694 24.1356 18.55 24.7481C17.1305 25.3606 15.6139 25.6668 14 25.6668ZM14 23.3335C16.6055 23.3335 18.8125 22.4293 20.6208 20.621C22.4291 18.8127 23.3333 16.6057 23.3333 14.0002C23.3333 11.3946 22.4291 9.18766 20.6208 7.37933C18.8125 5.571 16.6055 4.66683 14 4.66683C11.3944 4.66683 9.18748 5.571 7.37915 7.37933C5.57081 9.18766 4.66665 11.3946 4.66665 14.0002C4.66665 16.6057 5.57081 18.8127 7.37915 20.621C9.18748 22.4293 11.3944 23.3335 14 23.3335Z" fill="#999999"/>
</g>
</svg>
