<svg width="28" height="28" viewBox="0 0 28 28" fill="none" xmlns="http://www.w3.org/2000/svg">
<mask id="mask0_21_1051" style="mask-type:alpha" maskUnits="userSpaceOnUse" x="0" y="0" width="28" height="28">
<rect width="28" height="28" fill="#D9D9D9"/>
</mask>
<g mask="url(#mask0_21_1051)">
<path d="M6.82498 19.9502C7.81665 19.1918 8.92498 18.5939 10.15 18.1564C11.375 17.7189 12.6583 17.5002 14 17.5002C15.3416 17.5002 16.625 17.7189 17.85 18.1564C19.075 18.5939 20.1833 19.1918 21.175 19.9502C21.8555 19.1529 22.3854 18.2488 22.7646 17.2377C23.1437 16.2266 23.3333 15.1474 23.3333 14.0002C23.3333 11.4141 22.4243 9.21197 20.6062 7.39391C18.7882 5.57586 16.5861 4.66683 14 4.66683C11.4139 4.66683 9.21179 5.57586 7.39373 7.39391C5.57567 9.21197 4.66665 11.4141 4.66665 14.0002C4.66665 15.1474 4.85623 16.2266 5.2354 17.2377C5.61456 18.2488 6.14442 19.1529 6.82498 19.9502ZM14 15.1668C12.8528 15.1668 11.8854 14.7731 11.0979 13.9856C10.3104 13.1981 9.91665 12.2307 9.91665 11.0835C9.91665 9.93627 10.3104 8.96891 11.0979 8.18141C11.8854 7.39391 12.8528 7.00016 14 7.00016C15.1472 7.00016 16.1146 7.39391 16.9021 8.18141C17.6896 8.96891 18.0833 9.93627 18.0833 11.0835C18.0833 12.2307 17.6896 13.1981 16.9021 13.9856C16.1146 14.7731 15.1472 15.1668 14 15.1668ZM14 25.6668C12.3861 25.6668 10.8694 25.3606 9.44998 24.7481C8.03054 24.1356 6.79581 23.3043 5.74581 22.2543C4.69581 21.2043 3.86456 19.9696 3.25206 18.5502C2.63956 17.1307 2.33331 15.6141 2.33331 14.0002C2.33331 12.3863 2.63956 10.8696 3.25206 9.45016C3.86456 8.03072 4.69581 6.796 5.74581 5.746C6.79581 4.696 8.03054 3.86475 9.44998 3.25225C10.8694 2.63975 12.3861 2.3335 14 2.3335C15.6139 2.3335 17.1305 2.63975 18.55 3.25225C19.9694 3.86475 21.2041 4.696 22.2541 5.746C23.3041 6.796 24.1354 8.03072 24.7479 9.45016C25.3604 10.8696 25.6666 12.3863 25.6666 14.0002C25.6666 15.6141 25.3604 17.1307 24.7479 18.5502C24.1354 19.9696 23.3041 21.2043 22.2541 22.2543C21.2041 23.3043 19.9694 24.1356 18.55 24.7481C17.1305 25.3606 15.6139 25.6668 14 25.6668ZM14 23.3335C15.0305 23.3335 16.0028 23.1828 16.9166 22.8814C17.8305 22.58 18.6666 22.1474 19.425 21.5835C18.6666 21.0196 17.8305 20.587 16.9166 20.2856C16.0028 19.9842 15.0305 19.8335 14 19.8335C12.9694 19.8335 11.9972 19.9842 11.0833 20.2856C10.1694 20.587 9.33331 21.0196 8.57498 21.5835C9.33331 22.1474 10.1694 22.58 11.0833 22.8814C11.9972 23.1828 12.9694 23.3335 14 23.3335ZM14 12.8335C14.5055 12.8335 14.9236 12.6682 15.2541 12.3377C15.5847 12.0071 15.75 11.5891 15.75 11.0835C15.75 10.5779 15.5847 10.1599 15.2541 9.82933C14.9236 9.49877 14.5055 9.3335 14 9.3335C13.4944 9.3335 13.0764 9.49877 12.7458 9.82933C12.4153 10.1599 12.25 10.5779 12.25 11.0835C12.25 11.5891 12.4153 12.0071 12.7458 12.3377C13.0764 12.6682 13.4944 12.8335 14 12.8335Z" fill="#999999"/>
</g>
</svg>
