<svg width="28" height="28" viewBox="0 0 28 28" fill="none" xmlns="http://www.w3.org/2000/svg">
<mask id="mask0_21_1046" style="mask-type:alpha" maskUnits="userSpaceOnUse" x="0" y="0" width="28" height="28">
<rect width="28" height="28" fill="#D9D9D9"/>
</mask>
<g mask="url(#mask0_21_1046)">
<path d="M24.4372 26L21.0047 22.5954C20.6698 22.8 20.3116 22.9535 19.9302 23.0558C19.5488 23.1581 19.1535 23.2093 18.7442 23.2093C17.5163 23.2093 16.4651 22.7721 15.5907 21.8977C14.7163 21.0233 14.2791 19.9721 14.2791 18.7442C14.2791 17.5163 14.7163 16.4651 15.5907 15.5907C16.4651 14.7163 17.5163 14.2791 18.7442 14.2791C19.9721 14.2791 21.0233 14.7163 21.8977 15.5907C22.7721 16.4651 23.2093 17.5163 23.2093 18.7442C23.2093 19.1721 23.1535 19.5767 23.0419 19.9581C22.9302 20.3395 22.7721 20.6977 22.5674 21.0326L26 24.4372L24.4372 26ZM6.46512 23.2093C5.23721 23.2093 4.18605 22.7721 3.31163 21.8977C2.43721 21.0233 2 19.9721 2 18.7442C2 17.5163 2.43721 16.4651 3.31163 15.5907C4.18605 14.7163 5.23721 14.2791 6.46512 14.2791C7.69302 14.2791 8.74419 14.7163 9.61861 15.5907C10.493 16.4651 10.9302 17.5163 10.9302 18.7442C10.9302 19.9721 10.493 21.0233 9.61861 21.8977C8.74419 22.7721 7.69302 23.2093 6.46512 23.2093ZM6.46512 20.9767C7.07907 20.9767 7.60465 20.7581 8.04186 20.3209C8.47907 19.8837 8.69767 19.3581 8.69767 18.7442C8.69767 18.1302 8.47907 17.6047 8.04186 17.1674C7.60465 16.7302 7.07907 16.5116 6.46512 16.5116C5.85116 16.5116 5.32558 16.7302 4.88837 17.1674C4.45116 17.6047 4.23256 18.1302 4.23256 18.7442C4.23256 19.3581 4.45116 19.8837 4.88837 20.3209C5.32558 20.7581 5.85116 20.9767 6.46512 20.9767ZM18.7442 20.9767C19.3581 20.9767 19.8837 20.7581 20.3209 20.3209C20.7581 19.8837 20.9767 19.3581 20.9767 18.7442C20.9767 18.1302 20.7581 17.6047 20.3209 17.1674C19.8837 16.7302 19.3581 16.5116 18.7442 16.5116C18.1302 16.5116 17.6047 16.7302 17.1674 17.1674C16.7302 17.6047 16.5116 18.1302 16.5116 18.7442C16.5116 19.3581 16.7302 19.8837 17.1674 20.3209C17.6047 20.7581 18.1302 20.9767 18.7442 20.9767ZM6.46512 10.9302C5.23721 10.9302 4.18605 10.493 3.31163 9.61861C2.43721 8.74419 2 7.69302 2 6.46512C2 5.23721 2.43721 4.18605 3.31163 3.31163C4.18605 2.43721 5.23721 2 6.46512 2C7.69302 2 8.74419 2.43721 9.61861 3.31163C10.493 4.18605 10.9302 5.23721 10.9302 6.46512C10.9302 7.69302 10.493 8.74419 9.61861 9.61861C8.74419 10.493 7.69302 10.9302 6.46512 10.9302ZM18.7442 10.9302C17.5163 10.9302 16.4651 10.493 15.5907 9.61861C14.7163 8.74419 14.2791 7.69302 14.2791 6.46512C14.2791 5.23721 14.7163 4.18605 15.5907 3.31163C16.4651 2.43721 17.5163 2 18.7442 2C19.9721 2 21.0233 2.43721 21.8977 3.31163C22.7721 4.18605 23.2093 5.23721 23.2093 6.46512C23.2093 7.69302 22.7721 8.74419 21.8977 9.61861C21.0233 10.493 19.9721 10.9302 18.7442 10.9302ZM6.46512 8.69767C7.07907 8.69767 7.60465 8.47907 8.04186 8.04186C8.47907 7.60465 8.69767 7.07907 8.69767 6.46512C8.69767 5.85116 8.47907 5.32558 8.04186 4.88837C7.60465 4.45116 7.07907 4.23256 6.46512 4.23256C5.85116 4.23256 5.32558 4.45116 4.88837 4.88837C4.45116 5.32558 4.23256 5.85116 4.23256 6.46512C4.23256 7.07907 4.45116 7.60465 4.88837 8.04186C5.32558 8.47907 5.85116 8.69767 6.46512 8.69767ZM18.7442 8.69767C19.3581 8.69767 19.8837 8.47907 20.3209 8.04186C20.7581 7.60465 20.9767 7.07907 20.9767 6.46512C20.9767 5.85116 20.7581 5.32558 20.3209 4.88837C19.8837 4.45116 19.3581 4.23256 18.7442 4.23256C18.1302 4.23256 17.6047 4.45116 17.1674 4.88837C16.7302 5.32558 16.5116 5.85116 16.5116 6.46512C16.5116 7.07907 16.7302 7.60465 17.1674 8.04186C17.6047 8.47907 18.1302 8.69767 18.7442 8.69767Z" fill="#999999"/>
</g>
</svg>
