<svg width="20" height="21" viewBox="0 0 20 21" fill="none" xmlns="http://www.w3.org/2000/svg">
<path d="M4.92578 1.90039C5.40526 1.90048 5.85504 2.09867 6.2334 2.46875L6.5957 2.81934C6.71612 2.93931 6.83584 3.06083 6.95215 3.18066C7.07198 3.30402 7.1879 3.42325 7.31055 3.5459L8.36035 4.5957L8.50098 4.74707C8.80943 5.10739 8.97457 5.51552 8.97461 5.93457C8.97461 6.4139 8.75519 6.87855 8.36035 7.27344C8.25108 7.3827 8.14209 7.49114 8.03711 7.59961V7.60059C7.7538 7.89056 7.45793 8.18691 7.14453 8.47363C7.37449 8.98722 7.70056 9.49766 8.18066 10.1055L8.55371 10.5488C9.43146 11.5536 10.349 12.355 11.3447 12.9873C11.456 13.0581 11.5819 13.123 11.7227 13.1934C11.8137 13.2389 11.9106 13.2894 12.0078 13.3428L13.2178 12.1338C13.6028 11.7489 14.0603 11.5381 14.542 11.5381C15.0241 11.5381 15.4793 11.7488 15.8545 12.1387H15.8535L17.9697 14.2549C18.3642 14.6493 18.5673 15.1112 18.5684 15.582C18.5693 16.0528 18.3685 16.5212 17.9785 16.9277C17.8151 17.0983 17.6445 17.2649 17.4785 17.4238C17.2344 17.6609 17.0066 17.8788 16.8066 18.1201L16.8047 18.1182C16.7975 18.1282 16.7919 18.1368 16.7881 18.1406L16.7891 18.1416C16.1953 18.7863 15.4635 19.0996 14.5596 19.0996C14.476 19.0996 14.3959 19.0963 14.3154 19.0928H14.3135C13.1529 19.0176 12.0991 18.6251 11.2646 18.249L10.9199 18.0898C8.60324 16.9669 6.57339 15.3793 4.8877 13.3643C3.58764 11.8022 2.68322 10.3307 2.06348 8.76367L1.94336 8.44922C1.53852 7.35897 1.3789 6.44941 1.44727 5.58887V5.58789C1.50567 4.89151 1.78771 4.28852 2.2832 3.79297L3.60254 2.47363C3.99484 2.09969 4.44864 1.90039 4.92578 1.90039ZM4.92578 2.96289C4.73965 2.96289 4.53748 3.05015 4.34668 3.23438L3.03711 4.54395C2.71597 4.86526 2.54701 5.23443 2.50684 5.67969C2.45909 6.2819 2.55488 6.94102 2.82031 7.73926L2.94434 8.09082C3.52439 9.65628 4.40176 11.1196 5.70996 12.6943C7.29663 14.5927 9.20886 16.0876 11.3867 17.1416L11.7002 17.2871C12.4575 17.6295 13.3934 17.9774 14.3867 18.041C14.4466 18.0445 14.5072 18.0479 14.5635 18.0479C15.1605 18.0478 15.6159 17.8537 16.001 17.4385C16.2366 17.157 16.4968 16.9074 16.7412 16.6699L16.9814 16.4365C17.0585 16.3599 17.1332 16.2831 17.2061 16.2051L17.207 16.2041L17.3389 16.0469C17.4508 15.8913 17.5028 15.7417 17.5039 15.5996C17.5054 15.411 17.4175 15.2153 17.2188 15.0166L15.0947 12.8955L15.0918 12.8926V12.8916C14.9616 12.7517 14.7678 12.6113 14.542 12.6113C14.3583 12.6114 14.16 12.7033 13.9678 12.8955L12.6504 14.2129C12.5886 14.2747 12.3798 14.4814 12.0547 14.4814C11.9246 14.4814 11.7966 14.449 11.668 14.3828V14.3818C11.6586 14.3771 11.6502 14.3734 11.6445 14.3701C11.6382 14.3665 11.6341 14.3644 11.6299 14.3623L11.6211 14.3574C11.5097 14.2865 11.3832 14.2209 11.2422 14.1504H11.2412C11.0933 14.0747 10.9254 13.9936 10.7686 13.8916C9.53256 13.1066 8.41114 12.0887 7.34863 10.7783V10.7773C6.75616 10.0323 6.37327 9.40431 6.09766 8.74219L6.09473 8.73535C6.09401 8.7332 6.09361 8.73109 6.0918 8.72656C6.0901 8.72231 6.08774 8.71534 6.08496 8.70703C6.04791 8.59587 6.01334 8.45682 6.03223 8.30273C6.05149 8.14599 6.12473 7.98269 6.28516 7.82227L6.30664 7.80078L6.55371 7.5752C6.79584 7.34713 7.02824 7.11015 7.27441 6.86133L7.4375 6.69629C7.492 6.64091 7.54766 6.58516 7.60254 6.53027C7.81042 6.32239 7.9043 6.12355 7.9043 5.94141C7.90417 5.75936 7.81028 5.56126 7.60254 5.35352L6.55176 4.30273C6.49042 4.23965 6.42841 4.17733 6.36719 4.11523L6.18555 3.92969C5.94524 3.68584 5.72498 3.45949 5.49121 3.24316L5.48828 3.23926C5.30109 3.04883 5.10691 2.963 4.92578 2.96289Z" fill="white" stroke="white" stroke-width="0.2"/>
</svg>
